<svg width="16" height="15" viewBox="0 0 16 15" fill="none" xmlns="http://www.w3.org/2000/svg">
<path d="M7.81046 8.15341L7.81044 8.15344L10.9201 10.0193C10.9205 10.0195 10.9208 10.0197 10.9212 10.0199C11.0089 10.0708 11.1036 10.0373 11.1418 9.97237L11.1462 9.96481L11.1463 9.96486C11.1574 9.9469 11.1649 9.92688 11.1681 9.906L11.5387 9.96347L11.1681 9.90599C11.1713 9.8851 11.1703 9.86378 11.1652 9.84329L7.81046 8.15341ZM7.81046 8.15341L7.8058 8.1507C7.69361 8.08556 7.625 7.96443 7.625 7.83V4.29C7.625 4.19711 7.69711 4.125 7.79 4.125H7.835C7.92789 4.125 8 4.19711 8 4.29V7.695V7.90836L8.18341 8.01737L11.0859 9.74237L11.0859 9.7424L11.0909 9.74525C11.1092 9.75577 11.1252 9.76987 11.138 9.78671L7.81046 8.15341ZM0.875 7.5C0.875 3.56662 4.0601 0.375 7.9925 0.375C11.9331 0.375 15.125 3.56735 15.125 7.5C15.125 11.4326 11.9331 14.625 7.9925 14.625C4.0601 14.625 0.875 11.4334 0.875 7.5ZM1.625 7.5C1.625 11.0221 4.47789 13.875 8 13.875C11.5221 13.875 14.375 11.0221 14.375 7.5C14.375 3.97789 11.5221 1.125 8 1.125C4.47789 1.125 1.625 3.97789 1.625 7.5Z" fill="white" stroke="#A6A6A6" stroke-width="0.75"/>
</svg>
