<svg width="72" height="29" viewBox="0 0 72 29" fill="none" xmlns="http://www.w3.org/2000/svg">
<g filter="url(#filter0_d_105_4344)">
<path d="M25.7854 16.5H31.0601V15.2106H27.3092V8.0135H25.7854V16.5ZM30.814 9.29117H33.4396V16.5H34.9634V9.29117H37.5774V8.0135H30.814V9.29117ZM38.773 16.5H44.3173V15.2106H40.2968V12.8897H44.0008V11.6121H40.2968V9.29117H44.2939V8.0135H38.773V16.5Z" fill="black"/>
<path d="M63.0898 8.28125H51.0352C50.0492 8.28125 49.25 8.96061 49.25 9.79863V14.2014C49.25 15.0394 50.0492 15.7188 51.0352 15.7188H63.0898C64.0758 15.7188 64.875 15.0394 64.875 14.2014V9.79863C64.875 8.96061 64.0758 8.28125 63.0898 8.28125Z" stroke="black" stroke-width="1.125" stroke-miterlimit="10" stroke-linecap="square"/>
<path d="M57.2187 10.105H51.5034C51.4171 10.105 51.3472 10.1644 51.3472 10.2378V13.7616C51.3472 13.835 51.4171 13.8945 51.5034 13.8945H57.2187C57.3049 13.8945 57.3749 13.835 57.3749 13.7616V10.2378C57.3749 10.1644 57.3049 10.105 57.2187 10.105Z" fill="black" stroke="black" stroke-width="1.125" stroke-miterlimit="10" stroke-linecap="square"/>
<path d="M66.75 10.7607V13.2397" stroke="black" stroke-width="1.125" stroke-miterlimit="10" stroke-linecap="round"/>
<path d="M18.6667 7.1665C19.1727 7.1665 19.5833 7.53817 19.5833 7.99567V16.3373C19.5833 16.7957 19.1727 17.1665 18.6667 17.1665C18.1607 17.1665 17.75 16.7948 17.75 16.3373V7.99567C17.75 7.53734 18.1607 7.1665 18.6667 7.1665ZM15 9.6665C15.2431 9.6665 15.4763 9.7543 15.6482 9.91058C15.8201 10.0669 15.9167 10.2788 15.9167 10.4998V16.3332C15.9167 16.5542 15.8201 16.7661 15.6482 16.9224C15.4763 17.0787 15.2431 17.1665 15 17.1665C14.7569 17.1665 14.5237 17.0787 14.3518 16.9224C14.1799 16.7661 14.0833 16.5542 14.0833 16.3332V10.4998C14.0833 10.2788 14.1799 10.0669 14.3518 9.91058C14.5237 9.7543 14.7569 9.6665 15 9.6665ZM11.3333 12.1665C11.8393 12.1665 12.25 12.5373 12.25 12.9948V16.3382C12.25 16.7957 11.8393 17.1665 11.3333 17.1665C10.8273 17.1665 10.4167 16.7957 10.4167 16.3382V12.9948C10.417 12.8857 10.441 12.7778 10.4873 12.6771C10.5335 12.5764 10.6012 12.485 10.6863 12.4081C10.7714 12.3312 10.8724 12.2702 10.9834 12.2288C11.0944 12.1873 11.2133 12.1662 11.3333 12.1665ZM7.66667 14.6665C8.17267 14.6665 8.58333 15.0332 8.58333 15.4865V16.3465C8.58237 16.4551 8.5579 16.5624 8.51132 16.6624C8.46473 16.7623 8.39694 16.853 8.31182 16.9291C8.2267 17.0052 8.12591 17.0654 8.01522 17.1061C7.90452 17.1469 7.78608 17.1674 7.66667 17.1665C7.16067 17.1665 6.75 16.7998 6.75 16.3465V15.4865C6.75096 15.3779 6.77543 15.2706 6.82202 15.1707C6.8686 15.0707 6.93639 14.9801 7.02151 14.9039C7.10664 14.8278 7.20742 14.7676 7.31812 14.7269C7.42881 14.6861 7.54725 14.6656 7.66667 14.6665Z" fill="black"/>
</g>
<defs>
<filter id="filter0_d_105_4344" x="0" y="0.5" width="73" height="28" filterUnits="userSpaceOnUse" color-interpolation-filters="sRGB">
<feFlood flood-opacity="0" result="BackgroundImageFix"/>
<feColorMatrix in="SourceAlpha" type="matrix" values="0 0 0 0 0 0 0 0 0 0 0 0 0 0 0 0 0 0 127 0" result="hardAlpha"/>
<feOffset dy="4"/>
<feGaussianBlur stdDeviation="2"/>
<feComposite in2="hardAlpha" operator="out"/>
<feColorMatrix type="matrix" values="0 0 0 0 0 0 0 0 0 0 0 0 0 0 0 0 0 0 0.25 0"/>
<feBlend mode="normal" in2="BackgroundImageFix" result="effect1_dropShadow_105_4344"/>
<feBlend mode="normal" in="SourceGraphic" in2="effect1_dropShadow_105_4344" result="shape"/>
</filter>
</defs>
</svg>
