<svg width="15" height="16" viewBox="0 0 15 16" fill="none" xmlns="http://www.w3.org/2000/svg">
<path d="M11.4127 13.4111C10.9208 12.8601 10.3179 12.4194 9.6435 12.118C8.96915 11.8165 8.23866 11.6612 7.5 11.6621C5.94525 11.6621 4.54875 12.3371 3.58725 13.4111M7.5 14.6621C6.61358 14.6621 5.73583 14.4875 4.91689 14.1483C4.09794 13.8091 3.35382 13.3119 2.72703 12.6851C2.10023 12.0583 1.60303 11.3142 1.26381 10.4952C0.924594 9.67628 0.75 8.79853 0.75 7.91211C0.75 7.02569 0.924594 6.14794 1.26381 5.329C1.60303 4.51005 2.10023 3.76593 2.72703 3.13914C3.35382 2.51234 4.09794 2.01514 4.91689 1.67592C5.73583 1.3367 6.61358 1.16211 7.5 1.16211C9.29021 1.16211 11.0071 1.87327 12.273 3.13914C13.5388 4.40501 14.25 6.1219 14.25 7.91211C14.25 9.70232 13.5388 11.4192 12.273 12.6851C11.0071 13.9509 9.29021 14.6621 7.5 14.6621ZM7.5 9.41211C7.20453 9.41211 6.91194 9.35391 6.63896 9.24084C6.36598 9.12777 6.11794 8.96203 5.90901 8.7531C5.70008 8.54417 5.53434 8.29613 5.42127 8.02315C5.3082 7.75016 5.25 7.45758 5.25 7.16211C5.25 6.86664 5.3082 6.57405 5.42127 6.30107C5.53434 6.02809 5.70008 5.78005 5.90901 5.57112C6.11794 5.36219 6.36598 5.19645 6.63896 5.08338C6.91194 4.97031 7.20453 4.91211 7.5 4.91211C8.09674 4.91211 8.66903 5.14916 9.09099 5.57112C9.51295 5.99308 9.75 6.56537 9.75 7.16211C9.75 7.75885 9.51295 8.33114 9.09099 8.7531C8.66903 9.17506 8.09674 9.41211 7.5 9.41211Z" fill="white"/>
<path d="M11.4127 13.4111C10.9208 12.8601 10.3179 12.4194 9.6435 12.118C8.96915 11.8165 8.23866 11.6612 7.5 11.6621C5.94525 11.6621 4.54875 12.3371 3.58725 13.4111M7.5 14.6621C6.61358 14.6621 5.73583 14.4875 4.91689 14.1483C4.09794 13.8091 3.35382 13.3119 2.72703 12.6851C2.10023 12.0583 1.60303 11.3142 1.26381 10.4952C0.924594 9.67627 0.75 8.79853 0.75 7.91211C0.75 7.02569 0.924594 6.14794 1.26381 5.329C1.60303 4.51005 2.10023 3.76593 2.72703 3.13914C3.35382 2.51234 4.09794 2.01514 4.91689 1.67592C5.73583 1.3367 6.61358 1.16211 7.5 1.16211C9.29021 1.16211 11.0071 1.87327 12.273 3.13914C13.5388 4.40501 14.25 6.1219 14.25 7.91211C14.25 9.70232 13.5388 11.4192 12.273 12.6851C11.0071 13.951 9.29021 14.6621 7.5 14.6621ZM7.5 9.41211C7.20453 9.41211 6.91194 9.35391 6.63896 9.24084C6.36598 9.12777 6.11794 8.96203 5.90901 8.7531C5.70008 8.54417 5.53434 8.29613 5.42127 8.02315C5.3082 7.75016 5.25 7.45758 5.25 7.16211C5.25 6.86664 5.3082 6.57405 5.42127 6.30107C5.53434 6.02809 5.70008 5.78005 5.90901 5.57112C6.11794 5.36219 6.36598 5.19645 6.63896 5.08338C6.91194 4.97031 7.20453 4.91211 7.5 4.91211C8.09674 4.91211 8.66903 5.14916 9.09099 5.57112C9.51295 5.99308 9.75 6.56537 9.75 7.16211C9.75 7.75885 9.51295 8.33114 9.09099 8.7531C8.66903 9.17506 8.09674 9.41211 7.5 9.41211Z" stroke="#8DB0F9" stroke-width="1.5" stroke-linecap="round" stroke-linejoin="round"/>
</svg>
