<svg width="17" height="18" viewBox="0 0 17 18" fill="none" xmlns="http://www.w3.org/2000/svg">
<path d="M8.49992 6C6.9345 6 5.66658 7.3425 5.66658 9C5.66658 10.6575 6.9345 12 8.49992 12C10.0653 12 11.3333 10.6575 11.3333 9C11.3333 7.3425 10.0653 6 8.49992 6ZM14.8324 8.25C14.672 6.72909 14.0279 5.31115 13.0058 4.22902C11.9838 3.14689 10.6447 2.46488 9.20825 2.295V0.75H7.79158V2.295C6.35517 2.46488 5.01601 3.14689 3.99399 4.22902C2.97198 5.31115 2.32786 6.72909 2.16742 8.25H0.708252V9.75H2.16742C2.32786 11.2709 2.97198 12.6888 3.99399 13.771C5.01601 14.8531 6.35517 15.5351 7.79158 15.705V17.25H9.20825V15.705C10.6447 15.5351 11.9838 14.8531 13.0058 13.771C14.0279 12.6888 14.672 11.2709 14.8324 9.75H16.2916V8.25H14.8324ZM8.49992 14.25C5.75867 14.25 3.54159 11.9025 3.54159 9C3.54159 6.0975 5.75867 3.75 8.49992 3.75C11.2412 3.75 13.4583 6.0975 13.4583 9C13.4583 11.9025 11.2412 14.25 8.49992 14.25Z" fill="#171F31"/>
</svg>
