<svg width="82" height="30" viewBox="0 0 82 30" fill="none" xmlns="http://www.w3.org/2000/svg">
<rect width="82" height="30" rx="15" fill="#2D3E63"/>
<path d="M21.5417 13.4423C21.5417 17.0813 24.5479 20.0903 25.8789 21.2438C26.0701 21.4088 26.1657 21.4928 26.3081 21.5348C26.4186 21.5678 26.5815 21.5678 26.692 21.5348C26.8344 21.4928 26.93 21.4095 27.1213 21.2438C28.4522 20.0903 31.4584 17.0813 31.4584 13.4423C31.4578 12.759 31.3291 12.0827 31.0799 11.4525C30.8306 10.8223 30.4657 10.2508 30.0063 9.771C29.0721 8.79528 27.8123 8.24878 26.5001 8.25C25.1878 8.24878 23.9281 8.79528 22.9938 9.771C22.5344 10.2508 22.1695 10.8223 21.9202 11.4525C21.671 12.0827 21.5423 12.759 21.5417 13.4423Z" stroke="white" stroke-width="1.5" stroke-linecap="round" stroke-linejoin="round"/>
<path d="M25.0835 12.75C25.0835 13.1478 25.2328 13.5294 25.4984 13.8107C25.7641 14.092 26.1244 14.25 26.5002 14.25C26.8759 14.25 27.2362 14.092 27.5019 13.8107C27.7676 13.5294 27.9168 13.1478 27.9168 12.75C27.9168 12.3522 27.7676 11.9706 27.5019 11.6893C27.2362 11.408 26.8759 11.25 26.5002 11.25C26.1244 11.25 25.7641 11.408 25.4984 11.6893C25.2328 11.9706 25.0835 12.3522 25.0835 12.75Z" stroke="white" stroke-width="1.5" stroke-linecap="round" stroke-linejoin="round"/>
<path d="M51.9554 14.2644H45.8249V11.2754H51.8733V10.2322H44.5238V15.2959H47.5246V17.7223H43.3517V18.789H53.0338V17.7223H48.814V15.2959H51.9554V14.2644ZM57.5349 11.7443V11.6622H59.7503V10.6307H57.5466V9.41167H56.2338V10.6307H54.0184V11.6622H56.2338V11.7443C56.2338 13.0102 55.3488 14.241 53.6785 14.7216L54.3114 15.7414C55.5539 15.3663 56.433 14.5692 56.8961 13.5553C57.3766 14.4813 58.244 15.2139 59.4572 15.5655L60.0668 14.5223C58.3906 14.0652 57.529 12.9047 57.5349 11.7443ZM55.0264 17.4527H60.7818V20.055H62.0829V16.4095H55.0264V17.4527ZM60.7818 15.9289H62.0829V13.2329H63.5598V12.1311H62.0829V9.44683H60.7818V15.9289Z" fill="white"/>
</svg>
