<svg width="11" height="17" viewBox="0 0 11 17" fill="none" xmlns="http://www.w3.org/2000/svg">
<path d="M7.94995 16.4502L1.04995 9.55019C0.899951 9.4002 0.793951 9.23769 0.731951 9.06269C0.668951 8.8877 0.637451 8.7002 0.637451 8.50019C0.637451 8.30019 0.668951 8.1127 0.731951 7.9377C0.793951 7.76269 0.899951 7.6002 1.04995 7.4502L7.94995 0.550195C8.22495 0.275195 8.57495 0.137695 8.99995 0.137695C9.42495 0.137695 9.77495 0.275195 10.05 0.550195C10.325 0.825195 10.4625 1.1752 10.4625 1.6002C10.4625 2.0252 10.325 2.3752 10.05 2.6502L4.19995 8.50019L10.05 14.3502C10.325 14.6252 10.4625 14.9752 10.4625 15.4002C10.4625 15.8252 10.325 16.1752 10.05 16.4502C9.77495 16.7252 9.42495 16.8627 8.99995 16.8627C8.57495 16.8627 8.22495 16.7252 7.94995 16.4502Z" fill="#6B6B6B"/>
</svg>
