<svg width="20" height="20" viewBox="0 0 22 22" fill="none" xmlns="http://www.w3.org/2000/svg">
<rect x="0.416748" y="0.916504" width="20.8333" height="20.8333" rx="10.4167" fill="white"/>
<path d="M12.9167 11.3333L8.75008 15.5H6.66675V13.4167L10.8334 9.25L12.3277 7.75573L12.3282 7.75521C12.5339 7.54948 12.6371 7.44635 12.7558 7.40781C12.8604 7.37383 12.9731 7.37383 13.0777 7.40781C13.1964 7.44635 13.299 7.54948 13.5048 7.75469L14.411 8.66094C14.6173 8.86719 14.7204 8.97031 14.7589 9.08906C14.7929 9.19366 14.7929 9.30634 14.7589 9.41094C14.7204 9.52969 14.6173 9.63281 14.411 9.83906L12.9167 11.3339L10.8334 9.25052" stroke="#171F31" stroke-width="1.5625" stroke-linecap="round" stroke-linejoin="round"/>
</svg>
