<svg width="10" height="6" viewBox="0 0 10 6" fill="none" xmlns="http://www.w3.org/2000/svg">
<path d="M5.0001 5.23135C4.9001 5.23135 4.80335 5.2126 4.70985 5.1751C4.61585 5.1376 4.5376 5.0876 4.4751 5.0251L1.0251 1.5751C0.887597 1.4376 0.818848 1.2626 0.818848 1.0501C0.818848 0.837597 0.887597 0.662597 1.0251 0.525097C1.1626 0.387597 1.3376 0.318848 1.5501 0.318848C1.7626 0.318848 1.9376 0.387597 2.0751 0.525097L5.0001 3.4501L7.9251 0.525097C8.0626 0.387597 8.2376 0.318848 8.4501 0.318848C8.6626 0.318848 8.8376 0.387597 8.9751 0.525097C9.1126 0.662597 9.18135 0.837597 9.18135 1.0501C9.18135 1.2626 9.1126 1.4376 8.9751 1.5751L5.5251 5.0251C5.4501 5.1001 5.36885 5.1531 5.28135 5.1841C5.19385 5.2156 5.1001 5.23135 5.0001 5.23135Z" fill="#6B6B6B"/>
</svg>
