<svg width="58" height="28" viewBox="0 0 58 28" fill="none" xmlns="http://www.w3.org/2000/svg">
<g filter="url(#filter0_d_105_4340)">
<path d="M9.04688 18.6562C11.4922 18.6562 13.2812 17.2734 13.2656 15.3594C13.2812 13.9375 12.375 12.9141 10.7812 12.7031V12.6094C12.0156 12.3516 12.8594 11.4375 12.8438 10.1719C12.8594 8.4375 11.375 7.03125 9.07812 7.03125C6.86719 7.03125 5.14062 8.33594 5.09375 10.2344H7.04688C7.08594 9.28125 8 8.6875 9.0625 8.6875C10.1641 8.6875 10.8828 9.32812 10.875 10.2812C10.8828 11.2656 10.0469 11.9375 8.84375 11.9375H7.82812V13.5H8.84375C10.3125 13.5078 11.1875 14.2344 11.1875 15.25C11.1875 16.2578 10.2891 16.9453 9.04688 16.9375C7.86719 16.9453 6.96094 16.3438 6.90625 15.4375H4.85938C4.90625 17.3438 6.63281 18.6562 9.04688 18.6562ZM16.2969 17.0938C16.9453 17.0938 17.5 16.5469 17.5 15.875C17.5 15.2188 16.9453 14.6797 16.2969 14.6719C15.625 14.6797 15.0703 15.2188 15.0781 15.875C15.0703 16.5469 15.625 17.0938 16.2969 17.0938ZM15.0781 9.8125C15.0703 10.4844 15.625 11.0312 16.2969 11.0312C16.9453 11.0312 17.5 10.4844 17.5 9.8125C17.5 9.15625 16.9453 8.61719 16.2969 8.60938C15.625 8.61719 15.0703 9.15625 15.0781 9.8125ZM19.4062 18.5H27.2656V16.7969H22.2344V16.7188L24.25 14.7188C26.4766 12.6172 27.0859 11.5859 27.0938 10.3125C27.0859 8.41406 25.5312 7.03125 23.2188 7.03125C20.9609 7.03125 19.3516 8.42188 19.3594 10.5625H21.2969C21.2891 9.41406 22.0391 8.6875 23.2031 8.6875C24.3047 8.6875 25.1406 9.35156 25.1406 10.4062C25.1406 11.3594 24.5469 12.0312 23.4062 13.1719L19.4062 17.0312V18.5ZM33.1562 18.6562C35.6562 18.6562 37.4453 17.3125 37.4531 15.4688C37.4453 14.0312 36.3672 12.8594 35.0156 12.6406V12.5781C36.1875 12.3281 37.0156 11.3047 37.0156 10.0625C37.0156 8.3125 35.375 7.03125 33.1562 7.03125C30.9219 7.03125 29.2891 8.3125 29.2812 10.0625C29.2891 11.2969 30.0938 12.3281 31.2812 12.5781V12.6406C29.9219 12.8594 28.8516 14.0312 28.8594 15.4688C28.8516 17.3125 30.6328 18.6562 33.1562 18.6562ZM30.9531 15.2812C30.9453 14.2109 31.8828 13.4297 33.1562 13.4375C34.4297 13.4297 35.3516 14.2188 35.3594 15.2812C35.3516 16.3281 34.4844 17.0469 33.1562 17.0469C31.8125 17.0469 30.9453 16.3281 30.9531 15.2812ZM31.2656 10.25C31.2734 9.28906 32.0234 8.625 33.1562 8.625C34.2656 8.625 35.0312 9.28906 35.0312 10.25C35.0312 11.2422 34.2422 11.9219 33.1562 11.9219C32.0547 11.9219 31.2734 11.2422 31.2656 10.25Z" fill="black"/>
<path d="M52.2028 8.20346L48.7302 17.5835C48.5109 18.1761 47.8791 18.4806 47.3197 18.263C47.1812 18.2082 47.0555 18.1252 46.9506 18.0194C46.8457 17.9136 46.7638 17.7872 46.7101 17.6482L45.6094 14.8657C45.4025 14.3316 44.9925 13.9012 44.469 13.6687L41.8195 12.5131C41.2682 12.2722 41.0174 11.6043 41.2583 11.021C41.3153 10.8801 41.3996 10.752 41.5065 10.6439C41.6133 10.5359 41.7405 10.4501 41.8807 10.3915L50.8151 6.74571C51.3791 6.51529 52.0051 6.80463 52.2121 7.39263C52.3037 7.65279 52.2996 7.94096 52.2028 8.20346Z" fill="black"/>
</g>
<defs>
<filter id="filter0_d_105_4340" x="0" y="0.5" width="58" height="32" filterUnits="userSpaceOnUse" color-interpolation-filters="sRGB">
<feFlood flood-opacity="0" result="BackgroundImageFix"/>
<feColorMatrix in="SourceAlpha" type="matrix" values="0 0 0 0 0 0 0 0 0 0 0 0 0 0 0 0 0 0 127 0" result="hardAlpha"/>
<feOffset dy="4"/>
<feGaussianBlur stdDeviation="2"/>
<feComposite in2="hardAlpha" operator="out"/>
<feColorMatrix type="matrix" values="0 0 0 0 0 0 0 0 0 0 0 0 0 0 0 0 0 0 0.25 0"/>
<feBlend mode="normal" in2="BackgroundImageFix" result="effect1_dropShadow_105_4340"/>
<feBlend mode="normal" in="SourceGraphic" in2="effect1_dropShadow_105_4340" result="shape"/>
</filter>
</defs>
</svg>
