<svg width="32" height="33" viewBox="0 0 32 33" fill="none" xmlns="http://www.w3.org/2000/svg">
<g filter="url(#filter0_d_168_4087)">
<rect x="4" y="0.412109" width="24" height="24" rx="4" fill="white" shape-rendering="crispEdges"/>
<path d="M10.2 18.4121H14C14.1417 18.4121 14.2605 18.4601 14.3565 18.5561C14.4525 18.6521 14.5003 18.7708 14.5 18.9121C14.5 19.0538 14.452 19.1726 14.356 19.2686C14.26 19.3646 14.1413 19.4124 14 19.4121H9C8.85834 19.4121 8.7395 19.3641 8.6435 19.2681C8.5475 19.1721 8.49967 19.0534 8.5 18.9121V13.9121C8.5 13.7704 8.548 13.6516 8.644 13.5556C8.74 13.4596 8.85867 13.4118 9 13.4121C9.14167 13.4121 9.2605 13.4601 9.3565 13.5561C9.4525 13.6521 9.50034 13.7708 9.5 13.9121V17.7121L13.95 13.2621C14.0417 13.1704 14.1583 13.1246 14.3 13.1246C14.4417 13.1246 14.5583 13.1704 14.65 13.2621C14.7417 13.3538 14.7875 13.4704 14.7875 13.6121C14.7875 13.7538 14.7417 13.8704 14.65 13.9621L10.2 18.4121Z" fill="black"/>
<path d="M22 6.61211L17.5625 11.0621C17.4625 11.1621 17.3436 11.2121 17.206 11.2121C17.0683 11.2121 16.9496 11.1621 16.85 11.0621C16.75 10.9621 16.7 10.8433 16.7 10.7056C16.7 10.5679 16.75 10.4493 16.85 10.3496L21.3 5.91211H17.5C17.3583 5.91211 17.2395 5.86411 17.1435 5.76811C17.0475 5.67211 16.9996 5.55344 17 5.41211C17 5.27044 17.048 5.15161 17.144 5.05561C17.24 4.95961 17.3586 4.91178 17.5 4.91211H22.5C22.6416 4.91211 22.7605 4.96011 22.8565 5.05611C22.9525 5.15211 23.0003 5.27078 23 5.41211V10.4121C23 10.5538 22.952 10.6726 22.856 10.7686C22.76 10.8646 22.6413 10.9124 22.5 10.9121C22.3583 10.9121 22.2395 10.8641 22.1435 10.7681C22.0475 10.6721 21.9996 10.5534 22 10.4121V6.61211Z" fill="black"/>
</g>
<defs>
<filter id="filter0_d_168_4087" x="0" y="0.412109" width="32" height="32" filterUnits="userSpaceOnUse" color-interpolation-filters="sRGB">
<feFlood flood-opacity="0" result="BackgroundImageFix"/>
<feColorMatrix in="SourceAlpha" type="matrix" values="0 0 0 0 0 0 0 0 0 0 0 0 0 0 0 0 0 0 127 0" result="hardAlpha"/>
<feOffset dy="4"/>
<feGaussianBlur stdDeviation="2"/>
<feComposite in2="hardAlpha" operator="out"/>
<feColorMatrix type="matrix" values="0 0 0 0 0 0 0 0 0 0 0 0 0 0 0 0 0 0 0.15 0"/>
<feBlend mode="normal" in2="BackgroundImageFix" result="effect1_dropShadow_168_4087"/>
<feBlend mode="normal" in="SourceGraphic" in2="effect1_dropShadow_168_4087" result="shape"/>
</filter>
</defs>
</svg>
