<svg width="19" height="19" viewBox="0 0 19 19" fill="none" xmlns="http://www.w3.org/2000/svg">
<g id="Icon/photo">
<path id="Vector" d="M5 13.25H14L11.1875 9.5L8.9375 12.5L7.25 10.25L5 13.25ZM3.5 16.25C3.0875 16.25 2.7345 16.1033 2.441 15.8097C2.147 15.5157 2 15.1625 2 14.75V5.75C2 5.3375 2.147 4.9845 2.441 4.691C2.7345 4.397 3.0875 4.25 3.5 4.25H5.8625L7.25 2.75H11.75L13.1375 4.25H15.5C15.9125 4.25 16.2657 4.397 16.5597 4.691C16.8533 4.9845 17 5.3375 17 5.75V14.75C17 15.1625 16.8533 15.5157 16.5597 15.8097C16.2657 16.1033 15.9125 16.25 15.5 16.25H3.5ZM15.5 14.75V5.75H12.4625L11.0938 4.25H7.90625L6.5375 5.75H3.5V14.75H15.5Z" fill="#A6A6A6"/>
</g>
</svg>
