<svg width="33" height="33" viewBox="0 0 33 33" fill="none" xmlns="http://www.w3.org/2000/svg">
<g id="Icon/left">
<path id="Vector" d="M18.2334 23.5669L12.1001 17.4336C11.9667 17.3002 11.8725 17.1558 11.8174 17.0002C11.7614 16.8447 11.7334 16.678 11.7334 16.5002C11.7334 16.3224 11.7614 16.1558 11.8174 16.0002C11.8725 15.8447 11.9667 15.7002 12.1001 15.5669L18.2334 9.43356C18.4778 9.18912 18.789 9.06689 19.1667 9.06689C19.5445 9.06689 19.8556 9.18912 20.1001 9.43356C20.3445 9.67801 20.4667 9.98912 20.4667 10.3669C20.4667 10.7447 20.3445 11.0558 20.1001 11.3002L14.9001 16.5002L20.1001 21.7002C20.3445 21.9447 20.4667 22.2558 20.4667 22.6336C20.4667 23.0113 20.3445 23.3224 20.1001 23.5669C19.8556 23.8113 19.5445 23.9336 19.1667 23.9336C18.789 23.9336 18.4778 23.8113 18.2334 23.5669Z" fill="black"/>
</g>
</svg>
